<svg xmlns="http://www.w3.org/2000/svg" width="512" height="512"><path d="M403 100c41.393 38.688 65.307 93.16 67.219 149.664.842 38.444-8.208 74.758-25.801 108.809l-1.26 2.45C442 363 442 363 440.05 365.432c-3.482 8.506 3.599 23.844 5.957 32.508l1.471 5.454q1.923 7.13 3.857 14.256 3.104 11.452 6.194 22.909 1.08 3.998 2.167 7.993l1.315 4.867.614 2.25C463 460.773 463 460.773 463 463a708 708 0 0 1-32.319-8.157q-3.588-.995-7.179-1.979a6291 6291 0 0 1-20.367-5.614 2765 2765 0 0 0-12.566-3.457 862 862 0 0 1-4.75-1.317 811 811 0 0 0-6.615-1.817l-3.788-1.047c-5.53-.99-9.474.133-14.295 2.83l-2.758 1.507-2.925 1.613C331.767 458.213 306.609 465.668 280 469l-3 .398C222.175 475.295 165.945 458.17 123 424c-45.003-36.484-74.075-88.086-80.312-146-5.21-57.43 11.46-113.825 48.09-158.402C126.674 76.577 176.425 49.96 232 43l3-.398c61.923-6.66 122.481 15.94 168 57.398m-167 52c-5.284 7.656-6.986 13.6-6 23 2.685 8.884 8.464 14.296 16.25 18.938 7.241 2.051 14.12 2.194 21.063-.938 7.08-4.03 12.449-10.1 14.687-18 .987-8.812-.066-15.863-5.508-22.969-4.85-5.323-10.241-8.48-17.418-9.41-9.42-.37-16.97 1.92-23.074 9.379m-26 58v39h20v81h-20v39h92v-39h-20V210z" fill="#aaa9a3"/></svg>