<svg xmlns="http://www.w3.org/2000/svg" width="512" height="512"><path d="m357 28 2.135.908C377.383 36.705 394.767 47.285 410 60c.532.44 1.065.878 1.613 1.33A553 553 0 0 1 423 71l1.525 1.33c5.26 4.614 10.263 9.285 14.76 14.65a105 105 0 0 0 3.649 4.07C478.35 128.679 498.038 179.243 504 230l.402 3.293C508.545 275.34 500.858 318.434 484 357l-.908 2.135C475.295 377.383 464.715 394.767 452 410c-.44.532-.878 1.065-1.33 1.613A553 553 0 0 1 441 423l-1.33 1.525c-4.614 5.26-9.285 10.263-14.65 14.76a105 105 0 0 0-4.07 3.649c-46.477 43.746-111.07 63.337-173.875 62.16C209.24 503.945 172.334 493.81 139 476l-1.982-1.05c-17.864-9.524-33.726-21.182-48.674-34.829-2.143-1.94-4.327-3.814-6.531-5.683-3.303-2.88-6.167-5.968-8.993-9.313a118 118 0 0 0-3.765-4.187C33.885 383.562 13.919 332.398 8 282c-.2-1.63-.2-1.63-.402-3.293C3.455 236.66 11.142 193.566 28 155l.908-2.135C36.705 134.615 47.287 117.235 60 102l1.314-1.597C78.278 79.797 78.278 79.797 87.738 71.89a218 218 0 0 0 5.305-4.594C110.443 51.885 130.093 40.017 151 30l2.785-1.363C177.665 17.306 203.775 10.77 230 8l3.559-.395C275.69 3.812 318.32 11.092 357 28m-159 82c-15.022 17.113-21.632 38.005-20.232 60.59.613 6.372 2.239 12.345 4.232 18.41l1.027 3.164c7.334 19.784 23.389 34.521 42.23 43.258 17.832 7.774 39.5 8.513 57.743 1.578 18.947-7.652 35.13-21.286 44-40 8.167-20.073 10.385-41.565 2.187-62.03C320.419 114.497 305.685 98.756 285 90c-30.666-11.369-64.37-3.685-87 20m-53 200-2.547 2.262c-11.45 10.68-19.964 25.413-20.726 41.258-.562 20.619 4.514 35.936 18.933 51.218 29.365 28.385 79.638 37.873 118.927 37.613 38.598-.76 85.1-11.937 113.698-39.558 12.218-13.04 17.526-28.318 17.307-45.991-.881-21.17-12.227-36.218-27.28-50.302-20.837-18.968-46.137-30.821-73.312-37.5l-2.175-.548C236.84 256.172 182.658 275.455 145 310" fill="#9f9e9a"/></svg>