<svg xmlns="http://www.w3.org/2000/svg" width="512" height="512"><path d="m230.999 22.606 2.893-.019c3.173-.016 6.345-.012 9.517-.007q3.429-.01 6.858-.026c6.19-.022 12.38-.025 18.57-.023q7.764-.002 15.529-.017c12.914-.02 25.829-.021 38.743-.014 11.19.006 22.381-.015 33.572-.048q17.274-.051 34.549-.044c6.455.002 12.91-.004 19.365-.028 6.074-.023 12.146-.02 18.22 0q3.332.005 6.664-.016c16.841-.102 30.022 1.412 42.607 13.667 11.168 11.791 13.22 23.855 13.189 39.58l.015 4.418c.013 3.981.014 7.963.012 11.944q0 4.998.008 9.997.016 11.799.006 23.598c-.006 8.096.006 16.192.027 24.287q.026 10.453.02 20.906c-.001 4.154.001 8.308.015 12.462q.018 5.862-.002 11.726-.004 2.14.009 4.283c.082 15.298-3.458 27.283-14.03 38.627-12.183 11.073-26.279 12.632-42.105 12.329q-2.085-.024-4.172-.042-5.04-.053-10.078-.146l.02 2.237q.09 10.46.135 20.921c.016 3.585.037 7.17.071 10.755.033 3.462.05 6.924.059 10.387.008 1.957.031 3.915.055 5.872v3.639l.02 3.19c-.588 4.89-2.356 8.09-5.985 11.374-4.198 2.021-7.796 2.663-12.375 1.625-4.414-2.576-8.117-5.753-11.812-9.25l-1.671-1.561q-2.763-2.59-5.517-5.189l-4.062-3.816q-4.309-4.05-8.61-8.106a5955 5955 0 0 0-14.358-13.483 4496 4496 0 0 1-10.282-9.657l-2.157-2.03q-2.022-1.904-4.041-3.81l-1.869-1.758-1.611-1.52a264 264 0 0 0-5.636-4.934l-1.913-1.637L328 252l.011 1.963q.134 23.715.196 47.43c.02 7.647.049 15.293.095 22.939q.06 10.005.074 20.009c.006 3.526.018 7.053.047 10.58.033 3.95.033 7.902.031 11.853l.044 3.485c-.068 13.547-4.228 25.592-13.307 35.768-10.521 9.997-23.365 13.36-37.462 13.101l-6.12-.057-3.238-.041c-5.714-.065-11.427-.07-17.14-.085-7.247-.023-14.492-.064-21.738-.168-5.88-.082-11.756-.105-17.635-.09a340 340 0 0 1-6.683-.08c-14.07-.57-14.07-.57-26.2 5.578-2.515 2.473-4.735 5.087-6.975 7.815a164 164 0 0 1-4.39 4.11l-3.86 3.64-4.355 4.105-2.201 2.076c-5.69 5.367-11.388 10.727-17.086 16.086l-4.248 3.998c-24.827 23.373-24.827 23.373-33.317 23.262-3.774-.411-5.783-1.719-8.543-4.277-2.506-4.223-3.372-7.298-3.34-12.189v-3.639l.047-3.883q.009-2.005.013-4.01c.011-3.502.04-7.003.074-10.505.03-3.58.044-7.16.06-10.739q.05-10.518.146-21.035l-2.563.048q-4.798.076-9.595.117-2.06.022-4.12.061c-15.315.286-28.604-1.992-40.3-12.554-11.432-12.038-13.726-24.143-13.713-40.235q-.009-2.202-.02-4.403c-.017-3.97-.022-7.939-.024-11.908q-.001-3.729-.01-7.458-.028-13.035-.026-26.072c.002-8.071-.02-16.143-.051-24.215q-.038-10.43-.036-20.86c0-4.142-.005-8.284-.026-12.426q-.029-5.853-.005-11.704.003-2.133-.015-4.265C20.385 229.197 22.995 217.844 32 207l1.586-1.96c6.576-7.347 17.193-12.55 27.06-13.22a364 364 0 0 1 9.715-.047h3.727q5.032.002 10.065.024c3.513.013 7.025.014 10.538.016q9.966.011 19.931.043c7.567.022 15.135.033 22.702.043q23.338.032 46.676.101l-.008-2a22003 22003 0 0 1-.147-48.28q-.022-11.674-.071-23.348-.046-10.181-.056-20.363-.004-5.385-.035-10.77c-.025-4.02-.025-8.038-.024-12.057l-.032-3.563c.053-14.36 3.982-25.74 13.818-36.22C207.13 26.305 217.88 22.524 231 22.605" fill="#aaa9a3"/><path d="M70.453 191.773h3.757q5.072.002 10.145.024c3.54.013 7.081.014 10.622.016q10.046.011 20.09.043c7.628.022 15.256.033 22.883.043q23.526.032 47.05.101l.058 1.814c.093 2.746.201 5.491.31 8.237l.09 2.852c.491 11.872 4.492 22.165 12.542 31.097 14.09 12.698 29.516 12.731 47.422 12.672q3.533.015 7.067.039c6.16.034 12.322.04 18.483.038 8.723.003 17.445.045 26.168.083q6.96.03 13.919.03l6.303.012 2.931-.006 2.65.007h2.315C327 249 327 249 328 250c.105 1.653.14 3.311.147 4.968l.022 3.262.008 3.61.02 3.78q.028 6.229.041 12.458l.013 4.294q.029 10.103.041 20.204.015 11.631.077 23.262.044 9.002.048 18.005c.002 3.58.011 7.158.036 10.738.028 4.008.024 8.017.017 12.025l.039 3.538c-.085 13.598-4.199 25.662-13.318 35.883-10.521 9.997-23.365 13.36-37.462 13.101l-6.12-.057-3.238-.041c-5.714-.065-11.427-.07-17.14-.085-7.247-.023-14.492-.064-21.738-.168-5.88-.082-11.756-.105-17.635-.09a340 340 0 0 1-6.683-.08c-14.07-.57-14.07-.57-26.2 5.578-2.515 2.473-4.735 5.087-6.975 7.815a164 164 0 0 1-4.39 4.11l-3.86 3.64-4.355 4.105-2.201 2.076c-5.69 5.367-11.388 10.727-17.086 16.086l-4.248 3.998c-24.827 23.373-24.827 23.373-33.317 23.262-3.774-.411-5.783-1.719-8.543-4.277-2.506-4.223-3.372-7.298-3.34-12.189v-3.639l.047-3.883q.009-2.005.013-4.01c.011-3.502.04-7.003.074-10.505.03-3.58.044-7.16.06-10.739q.05-10.518.146-21.035l-2.563.048q-4.798.076-9.595.117-2.06.022-4.12.061c-15.315.286-28.604-1.992-40.3-12.554-11.432-12.038-13.726-24.143-13.713-40.235q-.009-2.202-.02-4.403c-.017-3.97-.022-7.939-.024-11.908a4799 4799 0 0 0-.01-7.458q-.028-13.035-.026-26.072c.002-8.071-.02-16.143-.051-24.215q-.038-10.43-.036-20.86c0-4.142-.005-8.284-.026-12.426q-.029-5.853-.005-11.704.003-2.133-.015-4.265C20.385 229.197 22.995 217.844 32 207l1.586-1.96c9.7-10.837 23.085-13.352 36.867-13.267" fill="#aaa9a3"/><path d="m284.601 88.482 3.807-.02c3.43-.019 6.86-.012 10.29 0 3.599.01 7.199.001 10.798-.005q9.067-.01 18.135.022c6.974.021 13.947.014 20.921-.008q9.003-.026 18.006-.01c3.578.006 7.156.007 10.735-.006 3.992-.014 7.984.005 11.976.027l3.563-.024c6.857.07 11.342.846 17.168 4.542 3.323 3.489 4.272 6.236 4.5 10.937-.24 5.144-1.327 7.995-4.5 12.063-6.285 4.753-12.002 4.576-19.693 4.533l-3.836.027c-3.457.022-6.913.02-10.37.01-2.893-.005-5.785.002-8.678.01q-10.24.023-20.48-.004a3010 3010 0 0 0-21.086.032q-9.072.039-18.146.025a1530 1530 0 0 0-10.818.018c-4.024.022-8.047.003-12.07-.02l-3.592.036c-6.961-.08-11.927-.932-17.231-5.667-3.616-4.859-3.839-10.148-3-16 4.808-10.385 13.452-10.587 23.601-10.518m-.898 62.016 3.875-.016c3.496-.014 6.991-.003 10.487.014 3.665.014 7.33.007 10.995.003q9.23-.002 18.46.034c7.106.027 14.212.029 21.318.017q10.269-.014 20.538.01 4.364.007 8.727 0c4.065-.005 8.13.014 12.194.036l3.646-.014c10.263.092 10.263.092 15.057 3.418 4.505 4.87 5.465 8.94 5.418 15.422-.694 4.282-3.11 6.907-6.418 9.578-3.249 1.97-5.714 2.254-9.49 2.267l-3.381.026-3.697-.002-3.903.02c-3.531.018-7.062.022-10.594.024q-3.31.001-6.621.01-11.555.028-23.11.026c-7.175-.002-14.35.02-21.526.051q-9.248.038-18.495.036c-3.68 0-7.36.005-11.04.026-4.106.023-8.21.014-12.316.002l-3.685.034c-6.337-.048-10.362-.18-15.142-4.52-3.75-4.267-4.358-8.195-4.277-13.719.572-4.707 3.25-7.35 6.631-10.418 4.896-3.135 10.746-2.41 16.35-2.365" fill="#9f9e9a"/><path d="m92.71 103.7 2.564-.014q2.68-.008 5.36-.002c2.724.003 5.447-.02 8.17-.045q2.61-.004 5.22-.002l2.453-.028c5.592.045 9.88.981 14.168 4.891 3.958 5.083 5.012 9.102 4.355 15.5-1.858 5.263-4.568 7.834-9 11-3.904 1.446-8.092 1.199-12.203 1.238l-2.414.025q-2.527.02-5.053.032-2.57.017-5.138.062c-2.486.043-4.971.059-7.458.069l-2.289.053C85.9 136.457 81.62 135.119 77 132c-3.575-4.125-4.908-7.545-5-13 .892-4.657 2.054-8.054 5.438-11.437L80 106l1.616-1.079c3.624-1.4 7.263-1.226 11.095-1.222" fill="#aaa9a3"/><path d="m400.223 380.504 2.617-.005q2.724.004 5.448.034c2.77.03 5.538.021 8.308.008q2.657.01 5.314.025l2.491-.008c4.927.08 8.326.733 12.599 3.442 4.67 5.175 5.358 8.396 5.277 15.238-.516 5.14-2.994 7.693-6.828 10.889-4.502 2.445-7.973 2.451-13.012 2.404l-2.756.012q-2.874.004-5.748-.022c-2.924-.02-5.845 0-8.769.026q-2.8-.004-5.601-.016l-2.634.025c-5.46-.084-8.587-.939-12.929-4.556-3.732-4.247-4.363-8.153-4.273-13.652.448-3.849 1.809-6.406 4.273-9.348 5.513-3.886 9.568-4.587 16.223-4.496" fill="#aaa9a3"/><path d="M184 289c5.675 2.003 9.307 5.614 12 11 .372 5.576.292 9.268-3 14-3.507 3.515-6.96 6.347-12.062 6.625-5.365-.851-8.938-2.342-12.485-6.39-3.398-4.85-4.304-8.374-3.453-14.235 4.227-8.14 9.905-11.918 19-11" fill="#9f9e9a"/><path d="M247 289c4.51 2.394 8.143 5.135 10 10 .801 5.56.574 10.775-2.605 15.527-3.628 3.831-7.896 5.266-13.02 5.973-5.72-.847-9.646-4.218-13.375-8.5-1.856-5.568-1.912-11.031.563-16.375 5.188-5.588 10.82-8.373 18.437-6.625m-120.812 1.625c3.88 2.17 5.97 4.228 7.812 8.375.888 5.594.599 10.738-2.605 15.527-3.628 3.831-7.896 5.266-13.02 5.973-5.72-.847-9.646-4.218-13.375-8.5-1.856-5.568-1.912-11.031.563-16.375 5.94-6.397 12.259-8.687 20.624-5" fill="#9f9e9a"/></svg>